<svg width="134.783936" height="24.000000" viewBox="0 0 134.784 24" fill="none" xmlns="http://www.w3.org/2000/svg" xmlns:xlink="http://www.w3.org/1999/xlink">
	<desc>
			Created with Pixso.
	</desc>
	<defs/>
	<path id="HEADING" d="M105.1 19.48L105.1 0L110.19 0L110.19 19.48L105.1 19.48ZM112.89 19.48L112.89 0L117.98 0L117.98 19.48L112.89 19.48ZM0 19.48L0 0.9L7.4 0.9Q11.9 0.9 13.75 3.12Q15.03 4.66 15.03 7.27L15.03 7.37Q15.03 9.47 14.05 10.88Q13.67 11.42 13.14 11.87Q11.24 13.42 7.66 13.42L5.87 13.42L5.87 19.48L0 19.48ZM5.87 9.48L7.09 9.48C8.66 9.48 9.45 8.78 9.45 7.4L9.45 7.29Q9.45 6.45 9.03 5.96Q8.46 5.29 7.11 5.29L5.87 5.29L5.87 9.48ZM23.13 19.81Q20.3 19.81 18.36 18.5Q18 18.26 17.67 17.97C16.29 16.74 15.59 15.03 15.59 12.85L15.59 12.64Q15.59 10.54 16.52 8.98L16.52 8.98Q17 8.15 17.75 7.48Q18.5 6.8 19.36 6.35Q21.03 5.5 23.13 5.5C25.17 5.5 26.86 6.1 28.19 7.29C29.52 8.49 30.19 10.25 30.19 12.57L30.19 13.81L20.76 13.81C20.83 14.63 21.09 15.25 21.54 15.68C21.99 16.12 22.58 16.33 23.31 16.33C24.54 16.33 25.25 15.85 25.44 14.88L30.22 14.88C30.01 16.45 29.31 17.67 28.11 18.54Q26.32 19.81 23.13 19.81ZM53.72 18.64Q52.03 19.81 49.02 19.81C47.01 19.81 45.45 19.41 44.34 18.62C43.24 17.8 42.66 16.64 42.63 15.11L47.3 15.11C47.39 15.6 47.56 15.95 47.8 16.18C48.04 16.4 48.44 16.51 48.99 16.51C49.95 16.51 50.42 16.19 50.42 15.55C50.42 15.24 50.25 15.01 49.9 14.85C49.56 14.68 48.93 14.53 48.03 14.41C46.14 14.2 44.79 13.79 43.98 13.16C43.17 12.54 42.76 11.52 42.76 10.1C42.76 8.61 43.32 7.48 44.45 6.7Q46.16 5.5 48.81 5.5C52.67 5.5 54.74 7 55.02 10L50.42 10C50.27 9.15 49.75 8.72 48.89 8.72C47.99 8.72 47.54 9.03 47.54 9.66C47.54 9.97 47.7 10.2 48.03 10.36C48.36 10.5 48.91 10.61 49.67 10.7C51.73 10.94 53.2 11.37 54.08 12C54.97 12.6 55.41 13.61 55.41 15.03Q55.41 16.67 54.63 17.75L54.63 17.75Q54.26 18.26 53.72 18.64ZM93.7 19.81C92.37 19.81 91.26 19.48 90.37 18.8Q90.07 18.56 89.84 18.26Q89.08 17.28 89.08 15.71Q89.08 14.29 89.75 13.35Q90.18 12.74 90.89 12.33C92.12 11.62 93.95 11.27 96.37 11.27L97.54 11.27L97.54 11.03C97.54 10.38 97.44 9.88 97.23 9.55C97.02 9.22 96.6 9.06 95.96 9.06C94.99 9.06 94.45 9.54 94.35 10.51L89.57 10.51Q89.67 8.91 90.47 7.81Q90.89 7.24 91.49 6.8C92.69 5.93 94.28 5.5 96.27 5.5C98.3 5.5 99.85 5.93 100.95 6.8C102.05 7.65 102.61 8.95 102.61 10.7L102.61 19.48L97.67 19.48L97.67 17.92C96.89 19.18 95.57 19.81 93.7 19.81ZM64.09 19.81Q61.42 19.81 59.52 18.61Q59.07 18.32 58.66 17.97Q58.01 17.4 57.56 16.7Q56.53 15.11 56.53 12.85L56.53 12.64Q56.53 10.42 57.53 8.82Q57.99 8.08 58.66 7.48Q59.23 6.97 59.87 6.59Q61.68 5.53 64.12 5.53C66.3 5.53 68.1 6.16 69.52 7.42C70.94 8.69 71.65 10.38 71.65 12.51L71.65 12.72C71.65 14.9 70.93 16.64 69.49 17.92C68.07 19.18 66.27 19.81 64.09 19.81ZM73.44 19.48L73.44 5.89L78.56 5.89L78.56 8.07C79.46 6.38 80.96 5.53 83.05 5.53C84.39 5.53 85.44 5.95 86.22 6.8C87.02 7.65 87.42 8.9 87.42 10.54L87.42 19.48L82.3 19.48L82.3 11.68C82.3 10.3 81.73 9.61 80.58 9.61C79.23 9.61 78.56 10.39 78.56 11.97L78.56 19.48L73.44 19.48ZM31.94 19.48L31.94 5.89L37.06 5.89L37.06 8.64C37.87 6.65 39.33 5.67 41.42 5.71L41.42 10.49C38.52 10.33 37.06 11.24 37.06 13.22L37.06 19.48L31.94 19.48ZM122.68 24L124.88 18.12L119.45 5.89L124.99 5.89L127.56 12.67L129.95 5.89L134.78 5.89L127.53 24L122.68 24ZM20.79 11.14L25.26 11.14C25.2 9.58 24.49 8.8 23.13 8.8C22.49 8.8 21.96 9 21.54 9.4C21.14 9.8 20.89 10.38 20.79 11.14ZM64.12 16.05Q64.9 16.05 65.42 15.68Q66.46 14.94 66.46 12.75L66.46 12.57Q66.46 10.4 65.43 9.67Q64.91 9.29 64.12 9.29C62.51 9.29 61.7 10.36 61.7 12.49L61.7 12.7C61.7 14.93 62.51 16.05 64.12 16.05ZM95.54 16.38C96.13 16.38 96.61 16.24 96.97 15.94C97.35 15.63 97.54 15.22 97.54 14.72L97.54 14.02L96.45 14.02C95.59 14.02 94.98 14.12 94.63 14.31C94.29 14.5 94.11 14.83 94.11 15.32C94.11 16.03 94.59 16.38 95.54 16.38Z" fill="#1E2834" fill-opacity="1.000000" fill-rule="evenodd"/>
</svg>
